<svg width="32" height="32" viewBox="0 0 32 32" fill="none" xmlns="http://www.w3.org/2000/svg">
<path d="M1.31565 0L2.44652 13.9556L3.59218 0H4.91522L3.04522 20.8V31.5556H1.84044V20.7111L0 0H1.31565Z" fill="#1B1F2B"/>
<path d="M6.47693 32C6.03345 32 5.65649 31.437 5.34606 30.3111C5.04055 29.1852 4.80649 27.7037 4.64388 25.8667C4.48127 24.0296 4.39997 22.0444 4.39997 19.9111C4.39997 17.7481 4.48127 15.7482 4.64388 13.9111C4.80649 12.0741 5.04301 10.5926 5.35345 9.46667C5.66388 8.34074 6.03838 7.77778 6.47693 7.77778C6.91548 7.77778 7.28997 8.34074 7.60041 9.46667C7.91084 10.5926 8.14736 12.0741 8.30997 13.9111C8.47258 15.7482 8.55389 17.7481 8.55389 19.9111C8.55389 22.0444 8.47258 24.0296 8.30997 25.8667C8.14736 27.7037 7.91084 29.1852 7.60041 30.3111C7.28997 31.437 6.91548 32 6.47693 32ZM5.61214 19.9111C5.61214 21.7185 5.69345 23.1852 5.85606 24.3111C6.02359 25.437 6.23055 26 6.47693 26C6.71838 26 6.92041 25.437 7.08302 24.3111C7.25055 23.1852 7.33432 21.7185 7.33432 19.9111C7.33432 18.1037 7.25055 16.637 7.08302 15.5111C6.92041 14.3852 6.71838 13.8222 6.47693 13.8222C6.23055 13.8222 6.02359 14.3852 5.85606 15.5111C5.69345 16.637 5.61214 18.1037 5.61214 19.9111Z" fill="#1B1F2B"/>
<path d="M9.10344 23.1556V8.22222H10.2861V21.6C10.2861 24.5333 10.4659 26 10.8256 26C10.9833 26 11.1361 25.7481 11.2839 25.2444C11.4317 24.7111 11.5623 23.837 11.6756 22.6222V8.22222H12.8582V23.6444C12.8582 24.3556 12.8755 24.8593 12.91 25.1556C12.9494 25.4519 13.0159 25.6148 13.1095 25.6444V31.5556C12.9962 31.6741 12.9001 31.763 12.8213 31.8222C12.7424 31.8815 12.671 31.9111 12.6069 31.9111C12.1832 31.9111 11.9417 30.9185 11.8826 28.9333L11.8604 27.5111C11.683 29.0519 11.4613 30.1926 11.1952 30.9333C10.934 31.6444 10.6408 32 10.3156 32C9.92141 32 9.62083 31.2444 9.41388 29.7333C9.20692 28.2222 9.10344 26.0296 9.10344 23.1556Z" fill="#1B1F2B"/>
<path d="M16.2357 14.3111C15.9499 14.3407 15.6912 14.6222 15.4596 15.1556C15.228 15.6889 15.0605 16.4889 14.957 17.5556V31.5556H13.7744V8.22222H14.8609V12.9333C14.994 11.363 15.1664 10.1333 15.3783 9.24444C15.5902 8.35556 15.8119 7.8963 16.0435 7.86667C16.1421 7.86667 16.2061 7.88148 16.2357 7.91111V14.3111Z" fill="#1B1F2B"/>
<path d="M20.576 6.4H18.9794V31.5556H17.7673V6.4H16.1634V0H20.576V6.4Z" fill="#1B1F2B"/>
<path d="M22.2412 32C21.7977 32 21.4208 31.437 21.1103 30.3111C20.8048 29.1852 20.5708 27.7037 20.4082 25.8667C20.2456 24.0296 20.1643 22.0444 20.1643 19.9111C20.1643 17.7481 20.2456 15.7482 20.4082 13.9111C20.5708 12.0741 20.8073 10.5926 21.1177 9.46667C21.4282 8.34074 21.8027 7.77778 22.2412 7.77778C22.6798 7.77778 23.0543 8.34074 23.3647 9.46667C23.6751 10.5926 23.9116 12.0741 24.0743 13.9111C24.2369 15.7482 24.3182 17.7481 24.3182 19.9111C24.3182 22.0444 24.2369 24.0296 24.0743 25.8667C23.9116 27.7037 23.6751 29.1852 23.3647 30.3111C23.0543 31.437 22.6798 32 22.2412 32ZM21.3764 19.9111C21.3764 21.7185 21.4577 23.1852 21.6203 24.3111C21.7879 25.437 21.9948 26 22.2412 26C22.4827 26 22.6847 25.437 22.8473 24.3111C23.0148 23.1852 23.0986 21.7185 23.0986 19.9111C23.0986 18.1037 23.0148 16.637 22.8473 15.5111C22.6847 14.3852 22.4827 13.8222 22.2412 13.8222C21.9948 13.8222 21.7879 14.3852 21.6203 15.5111C21.4577 16.637 21.3764 18.1037 21.3764 19.9111Z" fill="#1B1F2B"/>
<path d="M24.8677 23.1556V8.22222H26.0503V21.6C26.0503 24.5333 26.2302 26 26.5899 26C26.7476 26 26.9003 25.7481 27.0482 25.2444C27.196 24.7111 27.3266 23.837 27.4399 22.6222V8.22222H28.6225V23.6444C28.6225 24.3556 28.6398 24.8593 28.6743 25.1556C28.7137 25.4519 28.7802 25.6148 28.8738 25.6444V31.5556C28.7605 31.6741 28.6644 31.763 28.5856 31.8222C28.5067 31.8815 28.4353 31.9111 28.3712 31.9111C27.9474 31.9111 27.706 30.9185 27.6469 28.9333L27.6247 27.5111C27.4473 29.0519 27.2256 30.1926 26.9595 30.9333C26.6983 31.6444 26.4051 32 26.0799 32C25.6857 32 25.3851 31.2444 25.1782 29.7333C24.9712 28.2222 24.8677 26.0296 24.8677 23.1556Z" fill="#1B1F2B"/>
<path d="M32 14.3111C31.7142 14.3407 31.4555 14.6222 31.2239 15.1556C30.9923 15.6889 30.8248 16.4889 30.7213 17.5556V31.5556H29.5387V8.22222H30.6252V12.9333C30.7583 11.363 30.9307 10.1333 31.1426 9.24444C31.3545 8.35556 31.5762 7.8963 31.8078 7.86667C31.9064 7.86667 31.9704 7.88148 32 7.91111V14.3111Z" fill="#1B1F2B"/>
</svg>
