<?xml version="1.0" standalone="no"?>
<!DOCTYPE svg PUBLIC "-//W3C//DTD SVG 20010904//EN"
 "http://www.w3.org/TR/2001/REC-SVG-20010904/DTD/svg10.dtd">
<svg version="1.0" xmlns="http://www.w3.org/2000/svg"
 width="70.000000pt" height="70.000000pt" viewBox="0 0 70.000000 70.000000"
 preserveAspectRatio="xMidYMid meet">
<metadata>
Created by potrace 1.14, written by Peter Selinger 2001-2017
</metadata>
<g transform="translate(0.000000,70.000000) scale(0.100000,-0.100000)"
fill="#000000" stroke="none">
<path d="M5 633 c3 -38 8 -84 10 -103 2 -19 7 -75 11 -125 4 -49 8 -97 10
-105 1 -8 3 -77 3 -152 1 -108 4 -138 14 -138 11 0 14 23 14 96 1 99 13 335
18 344 1 3 6 48 9 100 4 52 9 107 12 123 4 20 2 27 -10 27 -9 0 -16 -8 -17
-17 0 -10 -2 -29 -4 -43 -7 -53 -15 -137 -15 -174 0 -64 -9 -36 -16 53 -3 45
-7 90 -9 99 -2 9 -4 32 -4 50 -1 22 -6 32 -17 32 -13 0 -14 -10 -9 -67z"/>
<path d="M353 630 c-1 -63 1 -70 18 -70 18 0 19 -11 19 -275 0 -217 3 -275 13
-275 10 0 13 58 12 275 0 256 1 275 17 275 16 0 18 10 18 70 l0 70 -48 0 -48
0 -1 -70z"/>
<path d="M125 518 c-35 -105 -39 -365 -7 -482 10 -36 27 -44 40 -19 36 67 38
408 2 491 -10 24 -28 29 -35 10z m29 -159 c15 -74 1 -251 -18 -221 -9 15 -15
162 -8 215 5 45 17 48 26 6z"/>
<path d="M344 515 c-4 -8 -10 -15 -16 -15 -5 0 -6 5 -3 10 3 6 -1 10 -9 10
-14 0 -16 -31 -16 -255 0 -220 2 -255 15 -255 13 0 15 25 15 164 0 104 4 175
12 193 10 25 19 163 11 163 -2 0 -6 -7 -9 -15z"/>
<path d="M459 483 c-19 -67 -18 -383 2 -437 19 -52 34 -55 51 -9 18 53 18 403
0 456 -18 50 -37 47 -53 -10z m44 -224 c-1 -109 -10 -150 -24 -113 -9 23 -11
200 -2 233 13 50 27 -13 26 -120z"/>
<path d="M683 500 c-11 -34 -11 -34 -12 -7 -1 18 -6 27 -13 25 -10 -4 -13 -64
-13 -247 0 -224 4 -276 20 -259 4 3 7 82 8 176 1 121 6 173 15 185 9 10 12 39
10 89 -3 70 -3 72 -15 38z"/>
<path d="M200 463 c-3 -301 2 -432 16 -455 9 -14 34 12 35 36 1 14 4 9 11 -14
15 -51 28 -18 24 61 -2 35 -4 147 -5 247 -1 139 -4 183 -13 180 -9 -3 -13 -54
-14 -187 0 -123 -5 -186 -12 -193 -14 -14 -14 -11 -16 221 -1 114 -4 155 -13
158 -10 4 -13 -12 -13 -54z"/>
<path d="M544 288 c2 -128 6 -245 10 -260 10 -33 26 -36 33 -8 6 23 23 27 23
6 0 -8 4 -17 9 -21 6 -3 9 94 9 255 -2 207 -4 260 -15 260 -10 0 -13 -37 -13
-174 0 -96 -3 -181 -6 -190 -17 -43 -24 12 -24 180 0 152 -2 184 -14 184 -12
0 -14 -38 -12 -232z"/>
</g>
</svg>
