<svg width="20" height="21" fill="none" xmlns="http://www.w3.org/2000/svg"><path d="M11.282 11.27a1.795 1.795 0 1 1 3.59-.001 1.795 1.795 0 0 1-3.59 0Zm-.97 0a2.765 2.765 0 1 0 5.53 0 2.765 2.765 0 0 0-5.53 0Zm4.993-2.875a.646.646 0 1 0 1.292 0 .646.646 0 0 0-1.292 0ZM10.9 15.652c-.525-.024-.81-.111-1-.185a1.675 1.675 0 0 1-.62-.403 1.664 1.664 0 0 1-.403-.619c-.074-.19-.16-.475-.185-1-.026-.567-.031-.738-.031-2.176 0-1.438.005-1.608.031-2.176.024-.525.112-.81.185-1 .098-.251.215-.43.403-.62.189-.188.368-.305.62-.402.19-.074.475-.161 1-.185.567-.026.738-.032 2.175-.032 1.438 0 1.608.006 2.176.032.525.024.81.112 1 .185.252.097.43.214.62.403.188.188.305.368.402.62.074.189.162.474.186 1 .026.567.031.737.031 2.175 0 1.438-.005 1.608-.031 2.176-.024.525-.112.81-.186 1-.097.252-.214.43-.402.619a1.67 1.67 0 0 1-.62.403c-.19.074-.475.161-1 .185-.567.026-.738.031-2.176.031-1.437 0-1.608-.005-2.175-.03Zm-.045-9.735c-.573.026-.965.117-1.307.25a2.642 2.642 0 0 0-.954.621c-.299.3-.483.6-.62.954-.134.342-.225.734-.251 1.307-.027.574-.033.758-.033 2.22 0 1.462.006 1.646.033 2.22.026.573.117.965.25 1.307.138.354.322.655.621.954.3.3.6.483.954.621.343.133.734.224 1.307.25.575.026.758.033 2.22.033 1.463 0 1.646-.006 2.22-.033.574-.026.965-.117 1.307-.25.354-.138.654-.322.954-.621.3-.3.484-.6.621-.954.133-.342.225-.734.25-1.307.026-.575.033-.758.033-2.22 0-1.462-.006-1.646-.033-2.22-.026-.573-.117-.965-.25-1.307a2.646 2.646 0 0 0-.62-.954c-.3-.299-.6-.483-.954-.62-.343-.134-.734-.225-1.307-.25-.574-.027-.758-.033-2.22-.033-1.463 0-1.646.006-2.22.032Z" fill="#A6A6A6"/></svg>