<svg version="1.0" xmlns="http://www.w3.org/2000/svg" width="93.333" height="93.333" viewBox="0 0 70 70"><path d="M.5 6.7c.3 3.8.8 8.4 1 10.3.2 1.9.7 7.5 1.1 12.5.4 4.9.8 9.7 1 10.5.1.8.3 7.7.3 15.2C4 66 4.3 69 5.3 69c1.1 0 1.4-2.3 1.4-9.6C6.8 49.5 8 25.9 8.5 25c.1-.3.6-4.8.9-10 .4-5.2.9-10.7 1.2-12.3.4-2 .2-2.7-1-2.7-.9 0-1.6.8-1.7 1.7 0 1-.2 2.9-.4 4.3C6.8 11.3 6 19.7 6 23.4c0 6.4-.9 3.6-1.6-5.3-.3-4.5-.7-9-.9-9.9-.2-.9-.4-3.2-.4-5C3 1 2.5 0 1.4 0 .1 0 0 1 .5 6.7zM35.3 7c-.1 6.3.1 7 1.8 7 1.8 0 1.9 1.1 1.9 27.5 0 21.7.3 27.5 1.3 27.5s1.3-5.8 1.2-27.5c0-25.6.1-27.5 1.7-27.5 1.6 0 1.8-1 1.8-7V0h-9.6l-.1 7zM12.5 18.2C9 28.7 8.6 54.7 11.8 66.4c1 3.6 2.7 4.4 4 1.9 3.6-6.7 3.8-40.8.2-49.1-1-2.4-2.8-2.9-3.5-1zm2.9 15.9c1.5 7.4.1 25.1-1.8 22.1-.9-1.5-1.5-16.2-.8-21.5.5-4.5 1.7-4.8 2.6-.6z"/><path d="M34.4 18.5c-.4.8-1 1.5-1.6 1.5-.5 0-.6-.5-.3-1 .3-.6-.1-1-.9-1-1.4 0-1.6 3.1-1.6 25.5 0 22 .2 25.5 1.5 25.5S33 66.5 33 52.6c0-10.4.4-17.5 1.2-19.3 1-2.5 1.9-16.3 1.1-16.3-.2 0-.6.7-.9 1.5zM45.9 21.7c-1.9 6.7-1.8 38.3.2 43.7 1.9 5.2 3.4 5.5 5.1.9C53 61 53 26 51.2 20.7c-1.8-5-3.7-4.7-5.3 1zm4.4 22.4c-.1 10.9-1 15-2.4 11.3-.9-2.3-1.1-20-.2-23.3 1.3-5 2.7 1.3 2.6 12zM68.3 20c-1.1 3.4-1.1 3.4-1.2.7-.1-1.8-.6-2.7-1.3-2.5-1 .4-1.3 6.4-1.3 24.7 0 22.4.4 27.6 2 25.9.4-.3.7-8.2.8-17.6.1-12.1.6-17.3 1.5-18.5.9-1 1.2-3.9 1-8.9-.3-7-.3-7.2-1.5-3.8zM20 23.7c-.3 30.1.2 43.2 1.6 45.5.9 1.4 3.4-1.2 3.5-3.6.1-1.4.4-.9 1.1 1.4 1.5 5.1 2.8 1.8 2.4-6.1-.2-3.5-.4-14.7-.5-24.7-.1-13.9-.4-18.3-1.3-18-.9.3-1.3 5.4-1.4 18.7 0 12.3-.5 18.6-1.2 19.3-1.4 1.4-1.4 1.1-1.6-22.1-.1-11.4-.4-15.5-1.3-15.8-1-.4-1.3 1.2-1.3 5.4zM54.4 41.2c.2 12.8.6 24.5 1 26 1 3.3 2.6 3.6 3.3.8.6-2.3 2.3-2.7 2.3-.6 0 .8.4 1.7.9 2.1.6.3.9-9.4.9-25.5-.2-20.7-.4-26-1.5-26-1 0-1.3 3.7-1.3 17.4 0 9.6-.3 18.1-.6 19-1.7 4.3-2.4-1.2-2.4-18 0-15.2-.2-18.4-1.4-18.4s-1.4 3.8-1.2 23.2z"/></svg>