<svg width="20" height="21" fill="none" xmlns="http://www.w3.org/2000/svg"><path fill-rule="evenodd" clip-rule="evenodd" d="M18.107 8.812c.108-.365 0-.62-.505-.62h-1.684c-.433 0-.625.231-.733.486 0 0-.854 2.114-2.069 3.474-.396.4-.565.522-.781.522-.108 0-.265-.121-.265-.486V8.812c0-.437-.12-.62-.48-.62H8.943c-.264 0-.433.207-.433.389 0 .413.601.51.674 1.652v2.502c0 .546-.097.644-.313.644-.565 0-1.96-2.114-2.778-4.543-.168-.45-.324-.644-.757-.644H3.653c-.48 0-.577.231-.577.486 0 .45.565 2.684 2.658 5.636 1.394 2.016 3.354 3.11 5.134 3.11 1.07 0 1.202-.244 1.202-.657v-1.53c0-.486.097-.583.445-.583.253 0 .674.121 1.672 1.093 1.142 1.154 1.334 1.676 1.972 1.676h1.683c.481 0 .722-.243.577-.716-.156-.474-.697-1.166-1.419-1.992-.396-.474-.986-.972-1.154-1.227-.252-.328-.18-.474 0-.753 0-.012 2.056-2.927 2.26-3.923Z" fill="#A6A6A6"/></svg>